<svg xmlns="http://www.w3.org/2000/svg" viewBox="0 0 24 24" fill="currentColor">
  <path d="M22.282 9.821a5.985 5.985 0 0 0-.516-4.91 6.046 6.046 0 0 0-6.51-2.9 6.065 6.065 0 0 0-10.345 2.6 5.985 5.985 0 0 0-3.998 2.9 6.046 6.046 0 0 0 .743 7.097 5.98 5.98 0 0 0 .511 4.911 6.051 6.051 0 0 0 6.515 2.9 5.985 5.985 0 0 0 4.609 2.058 6.056 6.056 0 0 0 5.772-4.206 5.99 5.99 0 0 0 3.998-2.9 6.056 6.056 0 0 0-.748-7.073zm-9.022 12.608a4.476 4.476 0 0 1-2.876-1.041l.142-.08 4.778-2.758a.795.795 0 0 0 .393-.681V6.932l2.02 1.169a.071.071 0 0 1 .038.052v5.583a4.504 4.504 0 0 1-4.495 4.493zm-9.66-4.125a4.47 4.47 0 0 1-.535-3.014l.142.085 4.783 2.758a.771.771 0 0 0 .78 0l5.843-3.368v2.332a.08.08 0 0 1-.033.062L9.74 19.95a4.5 4.5 0 0 1-6.14-1.646zM2.34 7.896a4.485 4.485 0 0 1 2.366-1.973v4.753a.766.766 0 0 0 .388.676l5.814 3.354-2.02 1.169a.076.076 0 0 1-.071 0L3.529 12.91A4.504 4.504 0 0 1 2.34 7.872zm16.597 3.856-5.833-3.367 2.015-1.164a.076.076 0 0 1 .071 0l4.83 2.791a4.494 4.494 0 0 1-.677 8.104v-5.677a.79.79 0 0 0-.406-.687zm2.01-3.023-.141-.085-4.774-2.782a.776.776 0 0 0-.785 0L9.41 9.23V6.898a.066.066 0 0 1 .028-.062l4.83-2.787a4.499 4.499 0 0 1 6.68 4.66zm-12.64 4.135-2.02-1.164a.08.08 0 0 1-.038-.057V6.074a4.499 4.499 0 0 1 7.376-3.454l-.142.08-4.778 2.758a.795.795 0 0 0-.393.681zm1.097-2.365 2.602-1.5 2.607 1.5v2.999l-2.597 1.5-2.607-1.5Z"/>
</svg>
